<svg xmlns="http://www.w3.org/2000/svg" viewBox="0 0 1200 1200" version="1.1" height="1200pt" width="1200pt">
 <g>
  <path d="m225 375h97.125l288.74 289.13c7.0312 7.0781 16.641 11.109 26.625 11.109 9.9844 0 19.594-4.0312 26.625-11.109 7.0781-7.0312 11.109-16.641 11.109-26.625s-4.0312-19.594-11.109-26.625l-289.13-288.74v-97.125c0.046875-9.9844-3.8438-19.547-10.875-26.625l-112.5-112.5c-10.781-10.641-26.906-13.734-40.875-7.875-14.016 5.7656-23.156 19.359-23.25 34.5v75h-75c-15.141 0.09375-28.734 9.2344-34.5 23.25-5.8594 13.969-2.7656 30.094 7.875 40.875l112.5 112.5c7.0781 7.0312 16.641 10.922 26.625 10.875zm0-112.5c9.9375 0 19.5-3.9375 26.531-10.969s10.969-16.594 10.969-26.531v-22.125l37.5 37.5v59.625h-59.625l-37.5-37.5z"></path>
  <path d="m637.5 750c-47.953 0.32812-90.891-29.766-106.88-75-4.2188-17.156-19.828-29.016-37.5-28.5-20.719 0-37.5 16.781-37.5 37.5 0.046875 3.8438 0.70312 7.6406 1.875 11.25 17.109 58.969 61.969 105.8 120.1 125.44 58.172 19.641 122.26 9.5625 171.56-26.953 49.312-36.516 77.672-94.875 75.844-156.24 0.09375-18.797-2.6719-37.547-8.25-55.5-18.281-59.156-64.594-105.47-123.74-123.74-9.5625-3-19.875-2.0625-28.734 2.5781s-15.516 12.609-18.516 22.172c-6.2344 19.875 4.875 41.016 24.75 47.25 35.953 10.922 64.078 39.047 75 75 3.0938 10.453 4.6406 21.328 4.5 32.25 0 62.109-50.391 112.5-112.5 112.5z"></path>
  <path d="m366 505.87c-19.453-6.75-40.734 3.4688-47.625 22.875-12.281 34.922-18.516 71.719-18.375 108.75 0 89.531 35.578 175.36 98.859 238.64 63.281 63.281 149.11 98.859 238.64 98.859s175.36-35.578 238.64-98.859c63.281-63.281 98.859-149.11 98.859-238.64s-35.578-175.36-98.859-238.64c-63.281-63.281-149.11-98.859-238.64-98.859-37.031-0.14063-73.828 6.0938-108.75 18.375-19.406 6.8906-29.625 28.172-22.875 47.625 6.75 19.547 28.031 29.953 47.625 23.25 27-9.4219 55.406-14.25 84-14.25 69.609 0 136.4 27.656 185.63 76.875 49.223 49.219 76.875 116.02 76.875 185.63 0 69.613-27.656 136.4-76.875 185.63-49.219 49.223-116.02 76.875-185.63 76.875-69.613 0-136.4-27.656-185.63-76.875-49.223-49.219-76.875-116.02-76.875-185.63 0-28.594 4.8281-57 14.25-84 6.7031-19.594-3.7031-40.875-23.25-47.625z"></path>
  <path d="m637.5 150c-58.828-0.1875-117.19 10.5-172.13 31.5-17.719 8.4375-25.969 29.109-18.891 47.391 7.0781 18.328 27.094 28.078 45.891 22.359 118.55-44.531 250.97-32.109 359.21 33.609 108.23 65.719 180.24 177.56 195.37 303.28 15.141 125.72-28.312 251.39-117.84 340.97-89.578 89.531-215.26 132.98-340.97 117.84-125.72-15.141-237.56-87.141-303.28-195.37-65.719-108.23-78.141-240.66-33.609-359.21 4.4531-9.4219 4.8281-20.297 0.98438-29.953-3.8906-9.7031-11.578-17.344-21.328-21.094-9.7031-3.7969-20.578-3.3281-29.953 1.2188-9.375 4.5938-16.406 12.844-19.453 22.828-21 54.938-31.688 113.3-31.5 172.13 0 129.28 51.375 253.31 142.78 344.72 91.406 91.406 215.44 142.78 344.72 142.78 129.29 0 253.31-51.375 344.72-142.78 91.406-91.406 142.78-215.44 142.78-344.72 0-129.29-51.375-253.31-142.78-344.72-91.406-91.406-215.44-142.78-344.72-142.78z"></path>
 </g>
</svg>
