<svg xmlns="http://www.w3.org/2000/svg" viewBox="0 0 1200 1200" version="1.1" height="1200pt" width="1200pt">
 <path fill-rule="evenodd" d="m1200 600c0 331.36-268.64 600-600 600s-600-268.64-600-600 268.64-600 600-600 600 268.64 600 600zm-600-129.94c35.484 0 64.266 28.781 64.266 64.312v341.21c0 35.531-28.781 64.312-64.266 64.312s-64.266-28.781-64.266-64.312v-341.21c0-35.531 28.781-64.312 64.266-64.312zm64.266-127.22c0-35.484-28.781-64.266-64.266-64.266s-64.266 28.781-64.266 64.266v1.1719c0 35.484 28.781 64.266 64.266 64.266s64.266-28.781 64.266-64.266z"></path>
</svg>
