<svg xmlns="http://www.w3.org/2000/svg" xmlns:xlink="http://www.w3.org/1999/xlink" width="50px" height="50px" viewBox="0 0 50 50" version="1.1">
  <defs>
    <linearGradient id="linear0" gradientUnits="userSpaceOnUse" x1="50" y1="99.6694" x2="50" y2="0" gradientTransform="matrix(0.5,0,0,0.5,0,0)">
      <stop offset="0" style="stop-color:rgb(97.647059%,97.647059%,97.647059%);stop-opacity:1;"/>
      <stop offset="1" style="stop-color:rgb(100%,100%,100%);stop-opacity:1;"/>
    </linearGradient>
  </defs>
  <g id="surface1">
    <path style=" stroke:none;fill-rule:nonzero;fill:rgb(22.352941%,78.039216%,32.156863%);fill-opacity:1;" d="M 1.066406 24.699219 C 1.066406 28.902344 2.171875 33.003906 4.277344 36.617188 L 0.867188 48.972656 L 13.605469 45.65625 C 17.128906 47.5625 21.078125 48.558594 25.089844 48.558594 L 25.101562 48.558594 C 38.347656 48.558594 49.128906 37.863281 49.132812 24.71875 C 49.136719 18.347656 46.640625 12.359375 42.101562 7.855469 C 37.5625 3.347656 31.53125 0.863281 25.101562 0.863281 C 11.855469 0.863281 1.074219 11.554688 1.066406 24.699219 "/>
    <path style=" stroke:none;fill-rule:nonzero;fill:url(#linear0);" d="M 0.210938 24.691406 C 0.207031 29.046875 1.351562 33.292969 3.53125 37.039062 L 0 49.835938 L 13.199219 46.402344 C 16.832031 48.367188 20.929688 49.40625 25.09375 49.40625 L 25.105469 49.40625 C 38.824219 49.40625 49.996094 38.328125 50 24.710938 C 50.003906 18.113281 47.414062 11.910156 42.714844 7.242188 C 38.015625 2.574219 31.765625 0.00390625 25.105469 0 C 11.382812 0 0.214844 11.078125 0.210938 24.691406 Z M 8.066406 36.394531 L 7.574219 35.617188 C 5.503906 32.347656 4.410156 28.574219 4.414062 24.695312 C 4.417969 13.378906 13.699219 4.171875 25.113281 4.171875 C 30.640625 4.171875 35.835938 6.3125 39.742188 10.191406 C 43.648438 14.070312 45.796875 19.226562 45.796875 24.710938 C 45.792969 36.027344 36.507812 45.238281 25.105469 45.238281 L 25.097656 45.238281 C 21.382812 45.234375 17.742188 44.246094 14.566406 42.375 L 13.808594 41.929688 L 5.976562 43.96875 Z M 8.066406 36.394531 "/>
    <path style=" stroke:none;fill-rule:nonzero;fill:rgb(100%,100%,100%);fill-opacity:1;" d="M 18.882812 14.371094 C 18.417969 13.34375 17.925781 13.320312 17.484375 13.304688 C 17.121094 13.289062 16.707031 13.289062 16.289062 13.289062 C 15.875 13.289062 15.203125 13.445312 14.632812 14.0625 C 14.0625 14.679688 12.457031 16.171875 12.457031 19.207031 C 12.457031 22.246094 14.683594 25.179688 14.996094 25.59375 C 15.304688 26.003906 19.296875 32.433594 25.621094 34.910156 C 30.875 36.964844 31.945312 36.554688 33.085938 36.453125 C 34.226562 36.351562 36.765625 34.960938 37.285156 33.519531 C 37.800781 32.078125 37.800781 30.84375 37.648438 30.585938 C 37.492188 30.328125 37.078125 30.171875 36.453125 29.863281 C 35.832031 29.554688 32.773438 28.0625 32.203125 27.855469 C 31.632812 27.652344 31.21875 27.546875 30.804688 28.164062 C 30.390625 28.78125 29.199219 30.171875 28.835938 30.585938 C 28.472656 30.996094 28.109375 31.046875 27.488281 30.738281 C 26.863281 30.429688 24.863281 29.777344 22.484375 27.675781 C 20.636719 26.039062 19.386719 24.019531 19.023438 23.402344 C 18.660156 22.785156 18.984375 22.449219 19.296875 22.144531 C 19.578125 21.867188 19.917969 21.421875 20.230469 21.0625 C 20.542969 20.703125 20.644531 20.445312 20.851562 20.03125 C 21.058594 19.621094 20.957031 19.261719 20.800781 18.953125 C 20.644531 18.644531 19.4375 15.589844 18.882812 14.371094 Z M 18.882812 14.371094 "/>
  </g>
</svg>
